<mxfile host="app.diagrams.net" modified="2020-12-17T21:34:54.931Z" agent="5.0 (Windows)" etag="F7SxzPWM1KauEP0pJn5w" version="14.0.4" type="github">
  <diagram id="s0R87GjOq4F6TkN3tkKj" name="Page-1">
    <mxGraphModel dx="371" dy="942" grid="1" gridSize="10" guides="1" tooltips="1" connect="1" arrows="1" fold="1" page="1" pageScale="1" pageWidth="827" pageHeight="1169" math="0" shadow="0">
      <root>
        <mxCell id="0" />
        <mxCell id="1" parent="0" />
        <mxCell id="kV3hW0LneIvXpQz90k-1-1" value="" style="rounded=0;whiteSpace=wrap;html=1;" parent="1" vertex="1">
          <mxGeometry x="60" y="50" width="720" height="510" as="geometry" />
        </mxCell>
        <mxCell id="kV3hW0LneIvXpQz90k-1-2" value="" style="rounded=0;whiteSpace=wrap;html=1;" parent="1" vertex="1">
          <mxGeometry x="90" y="80" width="290" height="270" as="geometry" />
        </mxCell>
        <mxCell id="kV3hW0LneIvXpQz90k-1-3" value="" style="rounded=0;whiteSpace=wrap;html=1;" parent="1" vertex="1">
          <mxGeometry x="414" y="80" width="340" height="270" as="geometry" />
        </mxCell>
        <mxCell id="kV3hW0LneIvXpQz90k-1-4" value="" style="rounded=0;whiteSpace=wrap;html=1;" parent="1" vertex="1">
          <mxGeometry x="90" y="380" width="664" height="150" as="geometry" />
        </mxCell>
        <mxCell id="kV3hW0LneIvXpQz90k-1-7" value="" style="rounded=0;whiteSpace=wrap;html=1;" parent="1" vertex="1">
          <mxGeometry x="595" y="90" width="150" height="90" as="geometry" />
        </mxCell>
        <mxCell id="kV3hW0LneIvXpQz90k-1-8" value="" style="rounded=0;whiteSpace=wrap;html=1;" parent="1" vertex="1">
          <mxGeometry x="595" y="190" width="150" height="150" as="geometry" />
        </mxCell>
        <mxCell id="kV3hW0LneIvXpQz90k-1-9" style="edgeStyle=orthogonalEdgeStyle;rounded=0;orthogonalLoop=1;jettySize=auto;html=1;exitX=0.5;exitY=1;exitDx=0;exitDy=0;" parent="1" source="kV3hW0LneIvXpQz90k-1-8" target="kV3hW0LneIvXpQz90k-1-8" edge="1">
          <mxGeometry relative="1" as="geometry" />
        </mxCell>
        <mxCell id="kV3hW0LneIvXpQz90k-1-12" value="Mode:" style="text;html=1;strokeColor=none;fillColor=none;align=center;verticalAlign=middle;whiteSpace=wrap;rounded=0;" parent="1" vertex="1">
          <mxGeometry x="600" y="200" width="60" height="30" as="geometry" />
        </mxCell>
        <mxCell id="kV3hW0LneIvXpQz90k-1-13" value="" style="rounded=1;whiteSpace=wrap;html=1;" parent="1" vertex="1">
          <mxGeometry x="610" y="253.75" width="50" height="67.5" as="geometry" />
        </mxCell>
        <mxCell id="kV3hW0LneIvXpQz90k-1-14" value="" style="rounded=1;whiteSpace=wrap;html=1;" parent="1" vertex="1">
          <mxGeometry x="680" y="253.75" width="50" height="66.25" as="geometry" />
        </mxCell>
        <mxCell id="kV3hW0LneIvXpQz90k-1-16" value="Normal" style="text;html=1;strokeColor=none;fillColor=none;align=center;verticalAlign=middle;whiteSpace=wrap;rounded=0;" parent="1" vertex="1">
          <mxGeometry x="685" y="275" width="40" height="20" as="geometry" />
        </mxCell>
        <mxCell id="kV3hW0LneIvXpQz90k-1-17" value="Name:" style="text;html=1;strokeColor=none;fillColor=none;align=center;verticalAlign=middle;whiteSpace=wrap;rounded=0;" parent="1" vertex="1">
          <mxGeometry x="600" y="100" width="40" height="20" as="geometry" />
        </mxCell>
        <mxCell id="kV3hW0LneIvXpQz90k-1-18" value="Type here..." style="text;html=1;strokeColor=none;fillColor=none;align=center;verticalAlign=middle;whiteSpace=wrap;rounded=0;" parent="1" vertex="1">
          <mxGeometry x="615" y="140" width="100" height="20" as="geometry" />
        </mxCell>
        <mxCell id="kV3hW0LneIvXpQz90k-1-19" value="" style="rounded=1;whiteSpace=wrap;html=1;" parent="1" vertex="1">
          <mxGeometry x="120" y="220" width="230" height="105" as="geometry" />
        </mxCell>
        <mxCell id="kV3hW0LneIvXpQz90k-1-20" value="&lt;font style=&quot;font-size: 14px&quot;&gt;Play&lt;/font&gt;" style="text;html=1;strokeColor=none;fillColor=none;align=center;verticalAlign=middle;whiteSpace=wrap;rounded=0;" parent="1" vertex="1">
          <mxGeometry x="150" y="262.5" width="80" height="20" as="geometry" />
        </mxCell>
        <mxCell id="kV3hW0LneIvXpQz90k-1-21" value="" style="triangle;whiteSpace=wrap;html=1;" parent="1" vertex="1">
          <mxGeometry x="260" y="237.5" width="60" height="70" as="geometry" />
        </mxCell>
        <mxCell id="kV3hW0LneIvXpQz90k-1-24" value="MINI RPG" style="text;strokeColor=none;fillColor=none;html=1;fontSize=24;fontStyle=1;verticalAlign=middle;align=center;" parent="1" vertex="1">
          <mxGeometry x="120" y="110" width="100" height="40" as="geometry" />
        </mxCell>
        <mxCell id="kV3hW0LneIvXpQz90k-1-25" value="Swape right or left..." style="text;html=1;strokeColor=none;fillColor=none;align=center;verticalAlign=middle;whiteSpace=wrap;rounded=0;" parent="1" vertex="1">
          <mxGeometry x="365" y="495" width="110" height="20" as="geometry" />
        </mxCell>
        <mxCell id="kV3hW0LneIvXpQz90k-1-26" value="&lt;div align=&quot;left&quot;&gt;Create a new Hero&lt;/div&gt;" style="text;html=1;strokeColor=none;fillColor=none;align=left;verticalAlign=middle;whiteSpace=wrap;rounded=0;" parent="1" vertex="1">
          <mxGeometry x="120" y="150" width="130" height="20" as="geometry" />
        </mxCell>
        <mxCell id="kV3hW0LneIvXpQz90k-1-27" value="&lt;div align=&quot;left&quot;&gt;or select an existing one...&lt;/div&gt;" style="text;html=1;strokeColor=none;fillColor=none;align=left;verticalAlign=middle;whiteSpace=wrap;rounded=0;" parent="1" vertex="1">
          <mxGeometry x="120" y="170" width="180" height="20" as="geometry" />
        </mxCell>
        <mxCell id="kV3hW0LneIvXpQz90k-1-28" value="" style="shape=singleArrow;whiteSpace=wrap;html=1;" parent="1" vertex="1">
          <mxGeometry x="660" y="490" width="80" height="30" as="geometry" />
        </mxCell>
        <mxCell id="kV3hW0LneIvXpQz90k-1-29" value="" style="shape=singleArrow;direction=west;whiteSpace=wrap;html=1;" parent="1" vertex="1">
          <mxGeometry x="100" y="490" width="80" height="30" as="geometry" />
        </mxCell>
        <mxCell id="kV3hW0LneIvXpQz90k-1-36" value="Actor" style="shape=umlActor;verticalLabelPosition=bottom;verticalAlign=top;html=1;outlineConnect=0;" parent="1" vertex="1">
          <mxGeometry x="462.5" y="122.5" width="85" height="160" as="geometry" />
        </mxCell>
        <mxCell id="kV3hW0LneIvXpQz90k-1-37" style="edgeStyle=orthogonalEdgeStyle;rounded=0;orthogonalLoop=1;jettySize=auto;html=1;exitX=0.5;exitY=1;exitDx=0;exitDy=0;" parent="1" source="kV3hW0LneIvXpQz90k-1-2" target="kV3hW0LneIvXpQz90k-1-2" edge="1">
          <mxGeometry relative="1" as="geometry" />
        </mxCell>
        <mxCell id="kV3hW0LneIvXpQz90k-1-38" value="" style="rounded=0;whiteSpace=wrap;html=1;" parent="1" vertex="1">
          <mxGeometry x="100" y="390" width="180" height="90" as="geometry" />
        </mxCell>
        <mxCell id="kV3hW0LneIvXpQz90k-1-41" value="" style="shape=actor;whiteSpace=wrap;html=1;fontFamily=Helvetica;fontSize=12;fontColor=#000000;align=center;strokeColor=#000000;fillColor=#ffffff;" parent="1" vertex="1">
          <mxGeometry x="120" y="405" width="40" height="50" as="geometry" />
        </mxCell>
        <mxCell id="kV3hW0LneIvXpQz90k-1-44" value="&quot;Slaylord&quot;" style="text;html=1;strokeColor=none;fillColor=none;align=center;verticalAlign=middle;whiteSpace=wrap;rounded=0;" parent="1" vertex="1">
          <mxGeometry x="180" y="400" width="40" height="20" as="geometry" />
        </mxCell>
        <mxCell id="kV3hW0LneIvXpQz90k-1-45" value="&lt;div align=&quot;left&quot;&gt;Atk-level: 10&lt;/div&gt;" style="text;html=1;strokeColor=none;fillColor=none;align=left;verticalAlign=middle;whiteSpace=wrap;rounded=0;" parent="1" vertex="1">
          <mxGeometry x="175" y="420" width="75" height="20" as="geometry" />
        </mxCell>
        <mxCell id="kV3hW0LneIvXpQz90k-1-46" value="&lt;div align=&quot;left&quot;&gt;Def-level: 4&lt;/div&gt;" style="text;html=1;strokeColor=none;fillColor=none;align=left;verticalAlign=middle;whiteSpace=wrap;rounded=0;" parent="1" vertex="1">
          <mxGeometry x="175" y="435" width="85" height="20" as="geometry" />
        </mxCell>
        <mxCell id="kV3hW0LneIvXpQz90k-1-47" value="Mode: hard" style="text;html=1;strokeColor=none;fillColor=none;align=center;verticalAlign=middle;whiteSpace=wrap;rounded=0;" parent="1" vertex="1">
          <mxGeometry x="175" y="455" width="85" height="20" as="geometry" />
        </mxCell>
        <mxCell id="kV3hW0LneIvXpQz90k-1-67" value="Hard" style="text;html=1;strokeColor=none;fillColor=none;align=center;verticalAlign=middle;whiteSpace=wrap;rounded=0;" parent="1" vertex="1">
          <mxGeometry x="615" y="277.5" width="40" height="20" as="geometry" />
        </mxCell>
        <mxCell id="kV3hW0LneIvXpQz90k-1-68" value="" style="rounded=0;whiteSpace=wrap;html=1;" parent="1" vertex="1">
          <mxGeometry x="565" y="390" width="180" height="90" as="geometry" />
        </mxCell>
        <mxCell id="kV3hW0LneIvXpQz90k-1-69" value="" style="shape=actor;whiteSpace=wrap;html=1;fontFamily=Helvetica;fontSize=12;fontColor=#000000;align=center;strokeColor=#000000;fillColor=#ffffff;" parent="1" vertex="1">
          <mxGeometry x="585" y="405" width="40" height="50" as="geometry" />
        </mxCell>
        <mxCell id="kV3hW0LneIvXpQz90k-1-70" value="&quot;Slayox&quot;" style="text;html=1;strokeColor=none;fillColor=none;align=center;verticalAlign=middle;whiteSpace=wrap;rounded=0;" parent="1" vertex="1">
          <mxGeometry x="645" y="400" width="40" height="20" as="geometry" />
        </mxCell>
        <mxCell id="kV3hW0LneIvXpQz90k-1-71" value="&lt;div align=&quot;left&quot;&gt;Atk-level: 4&lt;br&gt;&lt;/div&gt;" style="text;html=1;strokeColor=none;fillColor=none;align=left;verticalAlign=middle;whiteSpace=wrap;rounded=0;" parent="1" vertex="1">
          <mxGeometry x="640" y="420" width="70" height="20" as="geometry" />
        </mxCell>
        <mxCell id="kV3hW0LneIvXpQz90k-1-72" value="&lt;div align=&quot;left&quot;&gt;Def-level: 4&lt;/div&gt;" style="text;html=1;strokeColor=none;fillColor=none;align=left;verticalAlign=middle;whiteSpace=wrap;rounded=0;" parent="1" vertex="1">
          <mxGeometry x="640" y="435" width="85" height="20" as="geometry" />
        </mxCell>
        <mxCell id="kV3hW0LneIvXpQz90k-1-73" value="Mode: normal" style="text;html=1;strokeColor=none;fillColor=none;align=center;verticalAlign=middle;whiteSpace=wrap;rounded=0;" parent="1" vertex="1">
          <mxGeometry x="640" y="455" width="85" height="20" as="geometry" />
        </mxCell>
        <mxCell id="kV3hW0LneIvXpQz90k-1-74" value="" style="rounded=0;whiteSpace=wrap;html=1;" parent="1" vertex="1">
          <mxGeometry x="330" y="390" width="180" height="90" as="geometry" />
        </mxCell>
        <mxCell id="kV3hW0LneIvXpQz90k-1-75" value="" style="shape=actor;whiteSpace=wrap;html=1;fontFamily=Helvetica;fontSize=12;fontColor=#000000;align=center;strokeColor=#000000;fillColor=#ffffff;" parent="1" vertex="1">
          <mxGeometry x="350" y="405" width="40" height="50" as="geometry" />
        </mxCell>
        <mxCell id="kV3hW0LneIvXpQz90k-1-76" value="&quot;Slayana&quot;" style="text;html=1;strokeColor=none;fillColor=none;align=center;verticalAlign=middle;whiteSpace=wrap;rounded=0;" parent="1" vertex="1">
          <mxGeometry x="410" y="400" width="40" height="20" as="geometry" />
        </mxCell>
        <mxCell id="kV3hW0LneIvXpQz90k-1-77" value="&lt;div align=&quot;left&quot;&gt;Atk-level: 13&lt;br&gt;&lt;/div&gt;" style="text;html=1;strokeColor=none;fillColor=none;align=left;verticalAlign=middle;whiteSpace=wrap;rounded=0;" parent="1" vertex="1">
          <mxGeometry x="405" y="420" width="75" height="20" as="geometry" />
        </mxCell>
        <mxCell id="kV3hW0LneIvXpQz90k-1-78" value="&lt;div align=&quot;left&quot;&gt;Def-level: 1&lt;br&gt;&lt;/div&gt;" style="text;html=1;strokeColor=none;fillColor=none;align=left;verticalAlign=middle;whiteSpace=wrap;rounded=0;" parent="1" vertex="1">
          <mxGeometry x="405" y="435" width="85" height="20" as="geometry" />
        </mxCell>
        <mxCell id="kV3hW0LneIvXpQz90k-1-79" value="Mode: hard" style="text;html=1;strokeColor=none;fillColor=none;align=center;verticalAlign=middle;whiteSpace=wrap;rounded=0;" parent="1" vertex="1">
          <mxGeometry x="405" y="455" width="85" height="20" as="geometry" />
        </mxCell>
        <mxCell id="kV3hW0LneIvXpQz90k-1-84" value="" style="rounded=1;whiteSpace=wrap;html=1;" parent="1" vertex="1">
          <mxGeometry x="430" y="290" width="100" height="45" as="geometry" />
        </mxCell>
        <mxCell id="kV3hW0LneIvXpQz90k-1-85" value="select" style="text;html=1;strokeColor=none;fillColor=none;align=center;verticalAlign=middle;whiteSpace=wrap;rounded=0;" parent="1" vertex="1">
          <mxGeometry x="450" y="302.5" width="40" height="20" as="geometry" />
        </mxCell>
        <mxCell id="kV3hW0LneIvXpQz90k-1-86" value="" style="rounded=1;whiteSpace=wrap;html=1;" parent="1" vertex="1">
          <mxGeometry x="115" y="455" width="50" height="20" as="geometry" />
        </mxCell>
        <mxCell id="kV3hW0LneIvXpQz90k-1-87" value="select" style="text;html=1;strokeColor=none;fillColor=none;align=center;verticalAlign=middle;whiteSpace=wrap;rounded=0;" parent="1" vertex="1">
          <mxGeometry x="120" y="455" width="40" height="20" as="geometry" />
        </mxCell>
        <mxCell id="kV3hW0LneIvXpQz90k-1-88" value="" style="rounded=1;whiteSpace=wrap;html=1;" parent="1" vertex="1">
          <mxGeometry x="345" y="455" width="50" height="20" as="geometry" />
        </mxCell>
        <mxCell id="kV3hW0LneIvXpQz90k-1-89" value="select" style="text;html=1;strokeColor=none;fillColor=none;align=center;verticalAlign=middle;whiteSpace=wrap;rounded=0;" parent="1" vertex="1">
          <mxGeometry x="350" y="455" width="40" height="20" as="geometry" />
        </mxCell>
        <mxCell id="kV3hW0LneIvXpQz90k-1-90" value="" style="rounded=1;whiteSpace=wrap;html=1;" parent="1" vertex="1">
          <mxGeometry x="580" y="450" width="50" height="20" as="geometry" />
        </mxCell>
        <mxCell id="kV3hW0LneIvXpQz90k-1-91" value="select" style="text;html=1;strokeColor=none;fillColor=none;align=center;verticalAlign=middle;whiteSpace=wrap;rounded=0;" parent="1" vertex="1">
          <mxGeometry x="585" y="450" width="40" height="20" as="geometry" />
        </mxCell>
        <mxCell id="kV3hW0LneIvXpQz90k-1-94" value="" style="rounded=1;whiteSpace=wrap;html=1;" parent="1" vertex="1">
          <mxGeometry x="540" y="290" width="40" height="42.5" as="geometry" />
        </mxCell>
        <mxCell id="kV3hW0LneIvXpQz90k-1-95" value="Add to List" style="text;html=1;strokeColor=none;fillColor=none;align=center;verticalAlign=middle;whiteSpace=wrap;rounded=0;" parent="1" vertex="1">
          <mxGeometry x="540" y="301.25" width="40" height="20" as="geometry" />
        </mxCell>
      </root>
    </mxGraphModel>
  </diagram>
</mxfile>
